<svg width="24" height="24" viewBox="0 0 24 24" fill="none" xmlns="http://www.w3.org/2000/svg">
<path opacity="0.43" d="M18.7304 14.6701L14.5804 18.8201C14.4204 18.9801 14.2704 19.2901 14.2304 19.5101L14.0004 21.1001C13.9204 21.6701 14.3204 22.0801 14.8904 21.9901L16.4804 21.7601C16.7004 21.7301 17.0104 21.5701 17.1704 21.4101L21.3204 17.2601C22.0304 16.5501 22.3704 15.7101 21.3204 14.6601C20.2804 13.6201 19.4504 13.9501 18.7304 14.6701Z" fill="white"/>
<path opacity="0.43" d="M18.1406 15.2598C18.4906 16.5198 19.4806 17.4997 20.7406 17.8597L18.1406 15.2598Z" fill="white"/>
<path d="M2.03001 14.6299C2.03001 14.6599 2.01001 14.6999 2.01001 14.7299C2.93001 16.5699 4.43002 18.0799 6.27002 18.9899C6.30002 18.9899 6.34001 18.9699 6.37001 18.9699C6.03001 17.8099 5.77002 16.6199 5.58002 15.4299C4.38002 15.2299 3.19001 14.9699 2.03001 14.6299Z" fill="white"/>
<path d="M19.0701 6.43042C18.1301 4.46042 16.5401 2.87043 14.5801 1.94043C14.9401 3.13043 15.2401 4.35043 15.4401 5.57043C16.6601 5.77043 17.8801 6.06042 19.0701 6.43042Z" fill="white"/>
<path d="M1.92969 6.42953C3.12969 6.06953 4.3497 5.76955 5.5697 5.56955C5.7697 4.37955 6.0197 3.19955 6.3597 2.03955C6.3297 2.03955 6.28969 2.01953 6.25969 2.01953C4.37969 2.94953 2.84969 4.51954 1.92969 6.42953Z" fill="white"/>
<path d="M13.8197 5.36023C13.5797 4.06023 13.2797 2.76024 12.8497 1.50024C12.8297 1.43024 12.8297 1.37025 12.8197 1.29025C12.0797 1.11025 11.2997 0.990234 10.4997 0.990234C9.68969 0.990234 8.91969 1.10025 8.16969 1.29025C8.15969 1.36025 8.16969 1.42024 8.14969 1.50024C7.72969 2.76024 7.41969 4.06023 7.17969 5.36023C9.38969 5.12023 11.6097 5.12023 13.8197 5.36023Z" fill="white"/>
<path d="M5.36023 7.17969C4.05023 7.41969 2.76023 7.71969 1.50023 8.14969C1.43023 8.16969 1.37022 8.16969 1.29022 8.17969C1.11022 8.91969 0.990234 9.69969 0.990234 10.4997C0.990234 11.3097 1.10022 12.0797 1.29022 12.8297C1.36022 12.8397 1.42023 12.8297 1.50023 12.8497C2.76023 13.2697 4.05023 13.5797 5.36023 13.8197C5.12023 11.6097 5.12023 9.38969 5.36023 7.17969Z" fill="white"/>
<path d="M19.6989 8.17969C19.6289 8.17969 19.5689 8.16969 19.4889 8.14969C18.2289 7.72969 16.9289 7.41969 15.6289 7.17969C15.8789 9.38969 15.8789 11.6097 15.6289 13.8097C16.9289 13.5697 18.2289 13.2697 19.4889 12.8397C19.5589 12.8197 19.6189 12.8297 19.6989 12.8197C19.8789 12.0697 19.9989 11.2997 19.9989 10.4897C19.9989 9.69969 19.8889 8.92969 19.6989 8.17969Z" fill="white"/>
<path d="M7.17969 15.6406C7.41969 16.9506 7.71969 18.2406 8.14969 19.5006C8.16969 19.5706 8.15969 19.6306 8.16969 19.7106C8.91969 19.8906 9.68969 20.0106 10.4997 20.0106C11.2997 20.0106 12.0797 19.9006 12.8197 19.7106C12.8297 19.6406 12.8297 19.5806 12.8497 19.5006C13.2697 18.2406 13.5797 16.9506 13.8197 15.6406C12.7197 15.7606 11.6097 15.8506 10.4997 15.8506C9.38969 15.8406 8.27969 15.7606 7.17969 15.6406Z" fill="white"/>
<path d="M6.94961 6.94961C6.64961 9.30961 6.64961 11.6896 6.94961 14.0596C9.30961 14.3596 11.6896 14.3596 14.0596 14.0596C14.3596 11.6996 14.3596 9.31961 14.0596 6.94961C11.6896 6.64961 9.30961 6.64961 6.94961 6.94961Z" fill="white"/>
</svg>
