<svg width="185" height="152" viewBox="0 0 185 152" fill="none" xmlns="http://www.w3.org/2000/svg">
<path d="M172.591 0.483643H0V144.4H172.591V0.483643Z" fill="#638BFF"/>
<path d="M164.071 27.3313H9.16797V134.141H164.071V27.3313Z" fill="#183A9B"/>
<path d="M164.071 8.28442H9.16797V21.1006H164.071V8.28442Z" fill="#183A9B"/>
<path d="M30.6421 31.7385H20.832V34.9299H30.6421V31.7385Z" fill="white"/>
<path d="M30.6421 63.7288H20.832V66.9201H30.6421V63.7288Z" fill="white"/>
<path d="M37.021 36.8547H27.2109V40.0461H37.021V36.8547Z" fill="#FF693B"/>
<path d="M48.3296 36.8547H38.5195V40.0461H48.3296V36.8547Z" fill="#FF693B"/>
<path d="M59.6402 36.8547H49.8301V40.0461H59.6402V36.8547Z" fill="white"/>
<path d="M70.9234 36.8547H61.1133V40.0461H70.9234V36.8547Z" fill="white"/>
<path d="M90.7703 36.8547H73.4883V40.0461H90.7703V36.8547Z" fill="white"/>
<path d="M41.9214 42.1487H32.1113V45.3401H41.9214V42.1487Z" fill="#FF693B"/>
<path d="M53.23 42.1487H43.4199V45.3401H53.23V42.1487Z" fill="#FF693B"/>
<path d="M64.5464 42.1487H54.7363V45.3401H64.5464V42.1487Z" fill="white"/>
<path d="M75.8277 42.1487H66.0176V45.3401H75.8277V42.1487Z" fill="white"/>
<path d="M41.9214 53.0405H32.1113V56.2319H41.9214V53.0405Z" fill="#FF693B"/>
<path d="M53.23 53.0405H43.4199V56.2319H53.23V53.0405Z" fill="#FF693B"/>
<path d="M64.5464 53.0405H54.7363V56.2319H64.5464V53.0405Z" fill="white"/>
<path d="M75.8277 53.0405H66.0176V56.2319H75.8277V53.0405Z" fill="white"/>
<path d="M95.6766 53.0405H78.3945V56.2319H95.6766V53.0405Z" fill="white"/>
<path d="M37.021 58.5105H27.2109V61.7019H37.021V58.5105Z" fill="#FF693B"/>
<path d="M48.3296 58.5105H38.5195V61.7019H48.3296V58.5105Z" fill="#FF693B"/>
<path d="M59.6402 58.5105H49.8301V61.7019H59.6402V58.5105Z" fill="white"/>
<path d="M70.9234 58.5105H61.1133V61.7019H70.9234V58.5105Z" fill="white"/>
<path d="M46.8277 47.468H37.0176V50.6594H46.8277V47.468Z" fill="#FF693B"/>
<path d="M58.1402 47.468H48.3301V50.6594H58.1402V47.468Z" fill="#FF693B"/>
<path d="M69.4487 47.468H59.6387V50.6594H69.4487V47.468Z" fill="white"/>
<path d="M80.728 47.468H70.918V50.6594H80.728V47.468Z" fill="white"/>
<path d="M100.581 47.468H83.2988V50.6594H100.581V47.468Z" fill="white"/>
<path d="M30.6421 110.384H20.832V113.575H30.6421V110.384Z" fill="white"/>
<path d="M37.021 115.475H27.2109V118.666H37.021V115.475Z" fill="#FF693B"/>
<path d="M48.3296 115.475H38.5195V118.666H48.3296V115.475Z" fill="#FF693B"/>
<path d="M59.6402 115.475H49.8301V118.666H59.6402V115.475Z" fill="white"/>
<path d="M70.9234 115.475H61.1133V118.666H70.9234V115.475Z" fill="white"/>
<path d="M90.7703 115.475H73.4883V118.666H90.7703V115.475Z" fill="#183A9B"/>
<path d="M41.9214 120.793H32.1113V123.985H41.9214V120.793Z" fill="#FF693B"/>
<path d="M53.23 120.793H43.4199V123.985H53.23V120.793Z" fill="#FF693B"/>
<path d="M64.5464 120.793H54.7363V123.985H64.5464V120.793Z" fill="white"/>
<path d="M46.8277 126.113H37.0176V129.304H46.8277V126.113Z" fill="#FF693B"/>
<path d="M58.1402 126.113H48.3301V129.304H58.1402V126.113Z" fill="#FF693B"/>
<path d="M69.4487 126.113H59.6387V129.304H69.4487V126.113Z" fill="white"/>
<path d="M80.728 126.113H70.918V129.304H80.728V126.113Z" fill="white"/>
<path d="M100.581 126.113H83.2988V129.304H100.581V126.113Z" fill="#183A9B"/>
<path d="M28.6322 99.8725L16.8652 92.3246V86.3471L28.6322 78.8752V84.4981L20.4995 89.3359L28.6322 94.3003V99.8725Z" fill="#638BFF"/>
<path d="M32.293 104.735L41.0611 68.5159H45.8898L37.0963 104.735H32.293Z" fill="#638BFF"/>
<path d="M63.6321 102.634C62.3868 104.305 60.4298 105.141 57.7613 105.141C55.0928 105.141 53.085 104.255 51.7635 102.456C50.4419 100.683 49.7811 98.0998 49.7811 94.7564V79.0528C49.7811 73.6832 51.1789 70.3398 54.0253 68.9974C55.0673 68.5162 56.3381 68.2629 57.8122 68.2629C62.8951 68.2629 65.4366 71.4543 65.4366 77.8371V82.8014H60.1249V78.1917C60.1249 76.3427 59.9724 75.0003 59.642 74.2151C59.3371 73.4046 58.7017 73.0246 57.7867 73.0246C56.8718 73.0246 56.2364 73.4552 55.8806 74.2911C55.5248 75.1269 55.347 76.444 55.347 78.1917V95.035C55.347 96.9853 55.5248 98.353 55.8552 99.1889C56.1856 100.025 56.821 100.43 57.7359 100.43C58.6509 100.43 59.2608 99.9994 59.6166 99.1636C59.947 98.3277 60.1249 96.9093 60.1249 94.959V89.7921H65.5382V94.8831C65.4874 98.3784 64.8774 100.962 63.6321 102.634Z" fill="#638BFF"/>
<path d="M83.6012 102.557C82.3305 104.28 80.3227 105.166 77.5525 105.166C74.7823 105.166 72.7492 104.305 71.453 102.557C70.1569 100.81 69.5215 98.2009 69.5215 94.6803V78.1915C69.5215 71.5808 72.2154 68.2881 77.6288 68.2881C80.4244 68.2881 82.4321 69.1239 83.652 70.7956C84.8719 72.4673 85.4819 74.9495 85.4819 78.1915V94.6803C85.5073 98.1756 84.872 100.81 83.6012 102.557ZM75.5448 99.138C75.8751 99.9739 76.5359 100.379 77.5271 100.379C78.5183 100.379 79.179 99.9486 79.5094 99.0874C79.8398 98.2262 79.9923 96.7572 79.9923 94.7056V77.9129C79.9923 76.2159 79.8398 74.9494 79.5094 74.1643C79.179 73.3791 78.5437 72.9992 77.6288 72.9992C76.6884 72.9992 76.0277 73.3791 75.6464 74.1643C75.2652 74.9494 75.0873 76.1905 75.0873 77.8875V94.7056C75.0619 96.8332 75.2144 98.3022 75.5448 99.138Z" fill="#638BFF"/>
<path d="M90.4668 104.736V68.6938H98.5741C101.243 68.6938 103.149 69.479 104.369 71.0494C105.563 72.6197 106.173 74.9246 106.173 77.964L106.198 94.2249C106.198 97.8468 105.589 100.506 104.394 102.203C103.2 103.9 101.192 104.736 98.4216 104.736H90.4668ZM95.9818 100.481H97.7862C98.8028 100.481 99.5398 100.152 99.9973 99.4931C100.455 98.8346 100.684 97.6442 100.684 95.8965L100.658 78.0907C100.658 76.2164 100.429 74.8993 99.9719 74.0888C99.5145 73.3036 98.7266 72.8983 97.6084 72.8983H95.9818V100.481Z" fill="#638BFF"/>
<path d="M111.15 104.736V68.6938H123.273V73.4302H116.665V83.9162H122.943V88.5513H116.665V100.025H123.527V104.761H111.15V104.736Z" fill="#638BFF"/>
<path d="M127.064 99.8725V94.2496L135.197 89.4119L127.064 84.4475V78.8752L138.857 86.3725V92.3753L127.064 99.8725Z" fill="#638BFF"/>
<path d="M159.956 10.9946H152.535V18.3905H159.956V10.9946Z" fill="#638BFF"/>
<path d="M148.573 10.9946H141.152V18.3905H148.573V10.9946Z" fill="#638BFF"/>
<path d="M137.216 10.9946H129.795V18.3905H137.216V10.9946Z" fill="#638BFF"/>
<path d="M20.8117 10.9946H13.3906V18.3905H20.8117V10.9946Z" fill="#638BFF"/>
<path d="M172.518 120.869L170.892 119.527C171.502 118.362 172.036 117.146 172.518 115.905V87.4358C166.826 73.024 152.797 62.8167 136.328 62.8167C114.827 62.8167 97.3926 80.1919 97.3926 101.62C97.3926 123.048 114.827 140.423 136.328 140.423C146.57 140.423 155.872 136.472 162.835 130.038L172.518 137.991V120.869ZM136.328 127.987C121.714 127.987 109.897 116.184 109.897 101.645C109.897 87.0812 121.74 75.3036 136.328 75.3036C150.941 75.3036 162.785 87.1066 162.785 101.645C162.785 116.184 150.941 127.987 136.328 127.987Z" fill="#2D2D2D" fill-opacity="0.7"/>
<path d="M182.608 140.321L153.991 116.817C156.787 111.472 158.388 105.368 158.388 98.9095C158.388 77.4817 140.954 60.1064 119.453 60.1064C97.9521 60.1064 80.5176 77.4817 80.5176 98.9095C80.5176 120.337 97.9521 137.713 119.453 137.713C129.695 137.713 138.997 133.761 145.96 127.328L174.171 150.503C176.966 152.808 181.109 152.403 183.422 149.617L183.498 149.516C185.811 146.755 185.404 142.626 182.608 140.321ZM119.427 125.276C104.814 125.276 92.9962 113.473 92.9962 98.9349C92.9962 84.371 104.839 72.5933 119.427 72.5933C134.041 72.5933 145.859 84.3964 145.859 98.9349C145.884 113.473 134.041 125.276 119.427 125.276Z" fill="white"/>
</svg>
