<svg width="210" height="204" viewBox="0 0 210 204" fill="none" xmlns="http://www.w3.org/2000/svg">
<g filter="url(#filter0_d_29_2607)">
<path d="M169.083 90.1544C169.559 93.4588 169.8 96.7325 169.8 99.8912C169.8 138.769 137.617 170.402 98.0634 170.402C58.5094 170.402 26.3264 138.769 26.3264 99.8912C26.3264 69.6229 45.8811 42.9119 75.0767 33.1828C76.3481 33.9878 77.7911 34.4095 79.2887 34.4095C83.6489 34.4095 87.1979 30.9211 87.1979 26.6354C87.1979 22.3497 83.6489 18.8613 79.2887 18.8613C75.2483 18.8613 71.902 21.8514 71.434 25.7077C39.3915 36.8399 17.9336 66.5255 17.9336 99.9066C17.9336 143.331 53.8762 178.667 98.0634 178.667C142.243 178.667 178.193 143.339 178.193 99.9066C178.193 96.3952 177.928 92.7535 177.398 89.0658C179.199 87.5938 180.245 85.4317 180.245 83.1087C180.245 78.823 176.696 75.3346 172.335 75.3346C167.975 75.3346 164.426 78.823 164.426 83.1087C164.418 86.1907 166.251 88.9124 169.083 90.1544Z" fill="white"/>
<path d="M191.094 87.585C186.64 87.585 183.021 91.1423 183.021 95.52C183.021 98.3337 184.526 100.902 186.937 102.32C185.642 149.325 145.955 187.406 98.0083 187.406C48.9383 187.406 9.02539 148.168 9.02539 99.9438C9.02539 54.6179 44.8198 16.5218 90.6762 12.8188C92.205 14.7431 94.5061 15.8701 97.0099 15.8701C101.464 15.8701 105.083 12.3128 105.083 7.93507C105.083 3.55735 101.464 0 97.0099 0C93.8977 0 91.1052 1.76333 89.7714 4.48503C65.6849 6.47839 43.33 17.1659 26.7237 34.6384C9.81324 52.4406 0.5 75.6402 0.5 99.9438C0.5 152.791 44.2426 195.794 98.0161 195.794C123.78 195.794 148.092 185.965 166.469 168.124C184.612 150.514 194.893 127.115 195.47 102.167C197.771 100.71 199.167 98.2417 199.167 95.5277C199.167 91.1423 195.54 87.585 191.094 87.585Z" fill="white"/>
<path d="M98.3961 36.7231C63.2024 36.7231 34.5684 64.8678 34.5684 99.4602C34.5684 134.053 63.2024 162.197 98.3961 162.197C133.59 162.197 162.224 134.053 162.224 99.4602C162.224 64.8678 133.59 36.7231 98.3961 36.7231ZM98.3961 148.382C70.9556 148.382 48.624 126.439 48.624 99.4602C48.624 72.4886 70.9556 50.5386 98.3961 50.5386C125.837 50.5386 148.168 72.4886 148.168 99.4602C148.168 126.439 125.837 148.382 98.3961 148.382Z" fill="white"/>
<path d="M131.194 99.9273C131.194 82.5161 116.834 68.4016 99.1206 68.4016C81.4067 68.4016 67.0468 82.5161 67.0468 99.9273C67.0468 117.338 81.4067 131.453 99.1206 131.453C116.834 131.453 131.194 117.338 131.194 99.9273Z" fill="#FF693B"/>
</g>
<defs>
<filter id="filter0_d_29_2607" x="0.5" y="0" width="208.667" height="203.793" filterUnits="userSpaceOnUse" color-interpolation-filters="sRGB">
<feFlood flood-opacity="0" result="BackgroundImageFix"/>
<feColorMatrix in="SourceAlpha" type="matrix" values="0 0 0 0 0 0 0 0 0 0 0 0 0 0 0 0 0 0 127 0" result="hardAlpha"/>
<feOffset dx="6" dy="4"/>
<feGaussianBlur stdDeviation="2"/>
<feComposite in2="hardAlpha" operator="out"/>
<feColorMatrix type="matrix" values="0 0 0 0 0 0 0 0 0 0 0 0 0 0 0 0 0 0 0.19 0"/>
<feBlend mode="normal" in2="BackgroundImageFix" result="effect1_dropShadow_29_2607"/>
<feBlend mode="normal" in="SourceGraphic" in2="effect1_dropShadow_29_2607" result="shape"/>
</filter>
</defs>
</svg>
