<svg width="24" height="24" viewBox="0 0 24 24" fill="none" xmlns="http://www.w3.org/2000/svg">
<path d="M21.6501 10.0302C21.2601 9.47022 20.5701 9.15022 19.7801 9.15022H15.6801C15.4101 9.15022 15.1601 9.04022 14.9901 8.84022C14.8101 8.64022 14.7401 8.36022 14.7801 8.07022L15.2901 4.79022C15.5101 3.81022 14.8601 2.71022 13.8801 2.38022C12.9701 2.04022 11.9001 2.50022 11.4701 3.15022L7.25007 9.42022L7.13007 9.62022V18.4602L7.28007 18.6102L10.4501 21.0602C10.8701 21.4802 11.8201 21.7102 12.4901 21.7102H16.3901C17.7301 21.7102 19.0801 20.7002 19.3801 19.4702L21.8401 11.9802C22.1001 11.2702 22.0301 10.5802 21.6501 10.0302Z" fill="white"/>
<path opacity="0.4" d="M5.21006 6.37988H4.18006C2.63006 6.37988 2.00006 6.97988 2.00006 8.45988V18.5199C2.00006 19.9999 2.63006 20.5999 4.18006 20.5999H5.21006C6.76006 20.5999 7.39006 19.9999 7.39006 18.5199V8.45988C7.39006 6.97988 6.76006 6.37988 5.21006 6.37988Z" fill="white"/>
</svg>
