<svg width="124" height="36" viewBox="0 0 124 36" fill="none" xmlns="http://www.w3.org/2000/svg">
<path d="M10.0873 11.0223V15.4826H17.5666V19.4414H10.0873V24.9376H18.7361V28.8957H6.08594V10.9936H10.1762V7.06348H18.7361V11.0223H10.0873Z" fill="white"/>
<path d="M27.1735 13.0615C23.2467 13.0615 20.4141 15.4521 20.4141 20.6891V28.8953H24.4161V20.6891C24.4161 18.1774 25.2401 17.0203 27.1735 17.0203C29.107 17.0203 29.9316 18.1774 29.9316 20.6891V28.8953H33.9337V20.6891C33.933 15.4514 31.1004 13.0615 27.1735 13.0615Z" fill="white"/>
<path d="M45.4415 13.3057L41.9042 23.5669L38.4125 13.3057H34.2305L39.9115 28.8957H43.8977L49.6084 13.3057H45.4415Z" fill="white"/>
<path d="M92.0527 21.5111C92.0527 24.0235 91.2281 25.1806 89.2946 25.1806C87.3612 25.1806 86.5372 24.0235 86.5372 21.5111V13.3057H82.5352V21.5118C82.5352 26.7496 85.3677 29.1394 89.2946 29.1394C90.2393 29.1394 91.1384 28.9566 92.0224 28.5917V28.6828C92.0224 30.2202 91.1529 31.1798 89.2946 31.1798C88.2155 31.1798 87.7059 30.8295 87.0916 30.0535H82.64C83.1943 31.6063 84.0487 32.8398 85.2029 33.7685C86.3572 34.6819 87.7211 35.1386 89.2946 35.1386C91.2584 35.1386 92.8767 34.4689 94.151 33.1444C95.4252 31.8045 96.0548 30.1298 96.0548 28.1203V13.3064H92.0527V21.5111Z" fill="white"/>
<path d="M103.728 7.09326H99.7259V13.3046H97.4629V17.2627H99.7259V21.5409C99.7259 24.0533 100.34 25.9101 101.555 27.1436C102.769 28.377 104.417 28.9857 106.485 28.9857V25.0276C104.522 25.0276 103.727 24.0379 103.727 21.5409V17.2627H106.485V13.3046H103.727V7.09326H103.728Z" fill="white"/>
<path d="M123.361 20.7501C123.212 15.7869 119.149 13.0615 115.343 13.0615C113.904 13.0615 112.584 13.4271 111.385 14.1731C110.172 14.919 109.242 15.8933 108.568 17.1268C107.894 18.3602 107.549 19.6994 107.549 21.1311C107.549 22.5775 107.894 23.9167 108.598 25.1501C109.302 26.3836 110.261 27.3425 111.476 28.0583C112.69 28.7734 114.024 29.139 115.478 29.139C117.081 29.139 118.535 28.6978 119.839 27.7991C121.143 26.9166 122.117 25.7588 122.747 24.3131L117.995 24.2823C117.276 24.8763 116.391 25.1803 115.343 25.1803C113.559 25.1803 112.225 24.2214 111.85 22.6839H123.241C123.346 22.0445 123.391 21.405 123.361 20.7501ZM111.85 19.441C112.495 17.9337 113.739 17.0203 115.478 17.0203C116.242 17.0203 116.961 17.2332 117.636 17.6745C118.295 18.1165 118.775 18.7097 119.089 19.441H111.85Z" fill="white"/>
<path d="M63.7016 20.2247C63.7436 20.5265 63.765 20.8256 63.765 21.1142C63.765 24.666 60.92 27.556 57.4234 27.556C53.9268 27.556 51.0818 24.666 51.0818 21.1142C51.0818 18.3489 52.8104 15.9087 55.3913 15.0198C55.5037 15.0934 55.6313 15.1319 55.7637 15.1319C56.1491 15.1319 56.4629 14.8132 56.4629 14.4217C56.4629 14.0301 56.1491 13.7114 55.7637 13.7114C55.4065 13.7114 55.1107 13.9846 55.0693 14.3369C52.2367 15.3539 50.3398 18.066 50.3398 21.1156C50.3398 25.0828 53.5172 28.3111 57.4234 28.3111C61.3289 28.3111 64.5069 25.0835 64.5069 21.1156C64.5069 20.7948 64.4835 20.4621 64.4366 20.1252C64.5959 19.9907 64.6883 19.7932 64.6883 19.581C64.6883 19.1894 64.3745 18.8707 63.9891 18.8707C63.6036 18.8707 63.2899 19.1894 63.2899 19.581C63.2892 19.8625 63.4513 20.1112 63.7016 20.2247Z" fill="white"/>
<path d="M65.6475 19.9899C65.2538 19.9899 64.9338 20.3149 64.9338 20.7149C64.9338 20.9719 65.0669 21.2066 65.28 21.3361C65.1655 25.6304 61.6572 29.1094 57.4186 29.1094C53.0808 29.1094 49.5525 25.5247 49.5525 21.119C49.5525 16.9781 52.7167 13.4977 56.7705 13.1594C56.9056 13.3352 57.109 13.4382 57.3304 13.4382C57.7241 13.4382 58.0441 13.1132 58.0441 12.7132C58.0441 12.3133 57.7241 11.9883 57.3304 11.9883C57.0553 11.9883 56.8084 12.1494 56.6905 12.398C54.5612 12.5801 52.585 13.5565 51.117 15.1528C49.6221 16.7792 48.7988 18.8987 48.7988 21.119C48.7988 25.947 52.6657 29.8757 57.4193 29.8757C59.6969 29.8757 61.8461 28.9778 63.4707 27.3479C65.0745 25.739 65.9833 23.6013 66.0343 21.3221C66.2377 21.189 66.3612 20.9635 66.3612 20.7156C66.3612 20.3149 66.0405 19.9899 65.6475 19.9899Z" fill="white"/>
<path d="M57.453 15.3433C54.3418 15.3433 51.8105 17.9145 51.8105 21.0748C51.8105 24.2351 54.3418 26.8064 57.453 26.8064C60.5641 26.8064 63.0954 24.2351 63.0954 21.0748C63.0954 17.9145 60.5641 15.3433 57.453 15.3433ZM57.453 25.5442C55.0272 25.5442 53.0531 23.5396 53.0531 21.0748C53.0531 18.6107 55.0272 16.6054 57.453 16.6054C59.8787 16.6054 61.8529 18.6107 61.8529 21.0748C61.8529 23.5396 59.8787 25.5442 57.453 25.5442Z" fill="white"/>
<path d="M60.3522 21.1174C60.3522 19.5268 59.0827 18.2373 57.5168 18.2373C55.9509 18.2373 54.6815 19.5268 54.6815 21.1174C54.6815 22.7081 55.9509 23.9976 57.5168 23.9976C59.0827 23.9976 60.3522 22.7081 60.3522 21.1174Z" fill="#FF693B"/>
<path d="M8.84318 5.45459H4.72461V9.63822H8.84318V5.45459Z" fill="#FF693B"/>
<path d="M3.89716 1.73975H0.654297V5.03384H3.89716V1.73975Z" fill="#FF693B"/>
<path d="M8.78633 0.344727H6.61914V2.54686H8.78633V0.344727Z" fill="#FF693B"/>
<path d="M74.3004 14.4361C72.9654 14.4361 71.8056 14.7926 70.821 15.491V7.06348H67.1934V21.6694C67.1934 22.9848 67.5167 24.1902 68.1504 25.2997C68.7848 26.4099 69.6481 27.2861 70.7403 27.9305C71.8325 28.5742 73.0192 28.9027 74.3004 28.9027C75.5815 28.9027 76.782 28.5742 77.8742 27.9305C78.9671 27.2861 79.8297 26.4099 80.4641 25.2997C81.0977 24.1902 81.4211 22.9848 81.4211 21.6694C81.5025 17.7512 78.1307 14.3542 74.3004 14.4361ZM76.8495 24.2862C76.189 24.9845 75.3388 25.341 74.3272 25.341C73.3026 25.341 72.4531 24.9845 71.7787 24.2862C71.1044 23.5872 70.7672 22.7109 70.7672 21.6694C70.7672 20.6286 71.1044 19.7516 71.7787 19.0526C72.4531 18.3543 73.3026 17.9978 74.3272 17.9978C75.3388 17.9978 76.189 18.3403 76.8495 19.0393C77.5101 19.7376 77.8342 20.6146 77.8342 21.6694C77.8342 22.7242 77.5101 23.5872 76.8495 24.2862Z" fill="white"/>
</svg>
