<svg width="25" height="24" viewBox="0 0 25 24" fill="none" xmlns="http://www.w3.org/2000/svg">
<path d="M18.1981 7.77C18.1281 7.76 18.0581 7.76 17.9881 7.77C16.4381 7.72 15.2081 6.45 15.2081 4.89C15.2081 3.3 16.4981 2 18.0981 2C19.6881 2 20.9881 3.29 20.9881 4.89C20.9781 6.45 19.7481 7.72 18.1981 7.77Z" fill="white"/>
<path d="M21.4581 14.6999C20.3381 15.4499 18.7681 15.7299 17.3181 15.5399C17.6981 14.7199 17.8981 13.8099 17.9081 12.8499C17.9081 11.8499 17.6881 10.8999 17.2681 10.0699C18.7481 9.86992 20.3181 10.1499 21.4481 10.8999C23.0281 11.9399 23.0281 13.6499 21.4581 14.6999Z" fill="white"/>
<path d="M7.1081 7.77C7.1781 7.76 7.24811 7.76 7.31811 7.77C8.86811 7.72 10.0981 6.45 10.0981 4.89C10.0981 3.3 8.8081 2 7.20811 2C5.61811 2 4.31811 3.29 4.31811 4.89C4.32811 6.45 5.5581 7.72 7.1081 7.77Z" fill="white"/>
<path d="M7.2181 12.8501C7.2181 13.8201 7.4281 14.7401 7.8081 15.5701C6.3981 15.7201 4.9281 15.4201 3.8481 14.7101C2.2681 13.6601 2.2681 11.9501 3.8481 10.9001C4.9181 10.1801 6.4281 9.8901 7.8481 10.0501C7.4381 10.8901 7.2181 11.8401 7.2181 12.8501Z" fill="white"/>
<path d="M12.7881 15.87C12.7081 15.86 12.6181 15.86 12.5281 15.87C10.6881 15.81 9.2181 14.3 9.2181 12.44C9.2181 10.54 10.7481 9 12.6581 9C14.5581 9 16.0981 10.54 16.0981 12.44C16.0981 14.3 14.6381 15.81 12.7881 15.87Z" fill="white"/>
<path d="M9.5381 17.9401C8.0281 18.9501 8.0281 20.6101 9.5381 21.6101C11.2581 22.7601 14.0781 22.7601 15.7981 21.6101C17.3081 20.6001 17.3081 18.9401 15.7981 17.9401C14.0881 16.7901 11.2681 16.7901 9.5381 17.9401Z" fill="white"/>
</svg>
