<svg width="81" height="130" viewBox="0 0 81 130" fill="none" xmlns="http://www.w3.org/2000/svg">
<g filter="url(#filter0_d_29_1819)">
<path d="M28.5758 86.5938V85.4874C28.6536 78.2663 29.3738 72.5206 30.7364 68.2501C32.1378 63.9796 34.1232 60.5244 36.6926 57.8845C39.2619 55.2446 42.3568 52.8376 45.9772 50.6635C48.313 49.1882 50.4152 47.5383 52.2838 45.7136C54.1524 43.8889 55.6317 41.7925 56.7218 39.4243C57.8118 37.0562 58.3568 34.4356 58.3568 31.5628C58.3568 28.1076 57.5393 25.1182 55.9042 22.5948C54.2692 20.0713 52.0892 18.1301 49.3641 16.7714C46.678 15.3737 43.6804 14.6749 40.3714 14.6749C37.3738 14.6749 34.5125 15.2961 31.7875 16.5384C29.0624 17.7808 26.8045 19.7219 25.0137 22.3618C23.223 24.9629 22.1914 28.3211 21.9188 32.4363H4.16702C4.43953 25.4482 6.21082 19.5472 9.48089 14.7332C12.751 9.88035 17.0721 6.21162 22.4444 3.72697C27.8556 1.24232 33.8313 0 40.3714 0C47.5344 0 53.8021 1.33938 59.1743 4.01814C64.5466 6.65808 68.712 10.3656 71.6707 15.1408C74.6682 19.8772 76.167 25.4094 76.167 31.7375C76.167 36.0856 75.4858 40.0067 74.1232 43.5007C72.7607 46.9559 70.8142 50.0423 68.2838 52.7599C65.7923 55.4775 62.7948 57.8845 59.2911 59.9809C55.9821 62.0385 53.296 64.1738 51.2327 66.3866C49.2084 68.5995 47.7291 71.22 46.7948 74.2482C45.8605 77.2764 45.3544 81.0228 45.2765 85.4874V86.5938H28.5758ZM37.3933 122C34.2011 122 31.4566 120.874 29.1597 118.622C26.8629 116.332 25.7145 113.576 25.7145 110.353C25.7145 107.17 26.8629 104.452 29.1597 102.2C31.4566 99.91 34.2011 98.7647 37.3933 98.7647C40.5466 98.7647 43.2716 99.91 45.5685 102.2C47.9042 104.452 49.0721 107.17 49.0721 110.353C49.0721 112.488 48.5271 114.449 47.4371 116.235C46.386 117.982 44.9845 119.379 43.2327 120.428C41.4809 121.476 39.5344 122 37.3933 122Z" fill="#FF693B"/>
</g>
<defs>
<filter id="filter0_d_29_1819" x="0.167023" y="0" width="80" height="130" filterUnits="userSpaceOnUse" color-interpolation-filters="sRGB">
<feFlood flood-opacity="0" result="BackgroundImageFix"/>
<feColorMatrix in="SourceAlpha" type="matrix" values="0 0 0 0 0 0 0 0 0 0 0 0 0 0 0 0 0 0 127 0" result="hardAlpha"/>
<feOffset dy="4"/>
<feGaussianBlur stdDeviation="2"/>
<feComposite in2="hardAlpha" operator="out"/>
<feColorMatrix type="matrix" values="0 0 0 0 0 0 0 0 0 0 0 0 0 0 0 0 0 0 0.25 0"/>
<feBlend mode="normal" in2="BackgroundImageFix" result="effect1_dropShadow_29_1819"/>
<feBlend mode="normal" in="SourceGraphic" in2="effect1_dropShadow_29_1819" result="shape"/>
</filter>
</defs>
</svg>
