<svg width="158" height="159" viewBox="0 0 158 159" fill="none" xmlns="http://www.w3.org/2000/svg">
<path d="M157.52 71.4888H0.0742188V147.254H157.52V71.4888Z" fill="#638BFF"/>
<path d="M151.308 77.2341H6.72635V93.6473H151.308V77.2341Z" fill="#183A9B"/>
<path d="M6.72635 117.131V121.838V126.528V131.235H58.9204V126.528V121.838V117.131H6.72635Z" fill="#183A9B"/>
<path d="M99.1152 117.131V121.838V126.528V131.235H151.309V126.528V121.838V117.131H99.1152Z" fill="#183A9B"/>
<path d="M157.505 71.4886H0.0585327V65.4388C0.0585327 62.0202 2.90714 59.2458 6.41737 59.2458H151.146C154.656 59.2458 157.505 62.0202 157.505 65.4388V71.4886Z" fill="#638BFF"/>
<path d="M63.9725 117.435L55.6288 110.096L47.2852 117.435H51.0711V154.485C51.0711 156.937 53.111 158.924 55.6288 158.924C58.1466 158.924 60.1866 156.937 60.1866 154.485V117.435H63.9725Z" fill="#B32A00"/>
<path d="M130.592 138.573L122.248 131.235L113.904 138.573H117.69V154.485C117.69 156.937 119.73 158.924 122.248 158.924C124.766 158.924 126.806 156.937 126.806 154.485V138.573H130.592Z" fill="#B32A00"/>
<path d="M44.4589 149.42L36.1152 142.082L27.7715 149.42H31.5574V154.485C31.5574 156.938 33.5974 158.924 36.1152 158.924C38.633 158.924 40.673 156.938 40.673 154.485V149.42H44.4589Z" fill="#B32A00"/>
<path d="M112.053 100.986L103.709 93.6477L95.3652 100.986H99.1511V154.486C99.1511 156.938 101.191 158.925 103.709 158.925C106.227 158.925 108.267 156.938 108.267 154.486V100.986H112.053Z" fill="#B32A00"/>
<path d="M80.846 27.0821H76.7109V8.50322C76.7109 7.39349 77.6298 6.49854 78.7693 6.49854C79.9087 6.49854 80.8277 7.39349 80.8277 8.50322V27.0821H80.846Z" fill="#F4A82D"/>
<path d="M69.1357 21.2648C68.6946 21.3722 68.2536 21.1216 68.1249 20.6921L66.379 14.3559C66.2687 13.9264 66.526 13.4968 66.9671 13.3715C67.4082 13.2641 67.8492 13.5147 67.9779 13.9442L69.7238 20.2804C69.8341 20.71 69.5768 21.1574 69.1357 21.2648Z" fill="#E0F3FF"/>
<path d="M52.4321 30.6616C52.1197 30.9659 51.5867 30.9659 51.2743 30.6616L46.4959 26.0079C46.1835 25.7037 46.1835 25.1846 46.4959 24.8803C46.8083 24.576 47.3413 24.576 47.6538 24.8803L52.4321 29.534C52.7445 29.8383 52.7445 30.3573 52.4321 30.6616Z" fill="#E0F3FF"/>
<path d="M42.7826 46.932C42.6723 47.3616 42.2129 47.6122 41.7718 47.5048L35.2659 45.8044C34.8249 45.697 34.5675 45.2495 34.6778 44.82C34.7881 44.3904 35.2476 44.1398 35.6886 44.2472L42.1945 45.9476C42.6356 46.0729 42.8929 46.5025 42.7826 46.932Z" fill="#E0F3FF"/>
<path d="M42.7826 65.7255C42.8929 66.1551 42.6356 66.5847 42.1945 66.7099L35.6886 68.4103C35.2476 68.5177 34.8065 68.2671 34.6778 67.8375C34.5675 67.408 34.8249 66.9784 35.2659 66.8531L41.7718 65.1527C42.2129 65.0453 42.6723 65.2959 42.7826 65.7255Z" fill="#E0F3FF"/>
<path d="M52.4321 81.9955C52.7445 82.2998 52.7445 82.8189 52.4321 83.1232L47.6538 87.7768C47.3413 88.0811 46.8083 88.0811 46.4959 87.7768C46.1835 87.4726 46.1835 86.9535 46.4959 86.6492L51.2743 81.9955C51.5867 81.6913 52.1013 81.6913 52.4321 81.9955Z" fill="#E0F3FF"/>
<path d="M105.144 81.9955C105.457 81.6913 105.99 81.6913 106.302 81.9955L111.081 86.6492C111.393 86.9535 111.393 87.4726 111.081 87.7768C110.768 88.0811 110.235 88.0811 109.923 87.7768L105.144 83.1232C104.832 82.8189 104.832 82.3177 105.144 81.9955Z" fill="#E0F3FF"/>
<path d="M114.789 65.7255C114.899 65.2959 115.359 65.0453 115.8 65.1527L122.306 66.8531C122.747 66.9605 123.004 67.408 122.894 67.8375C122.784 68.2671 122.324 68.5177 121.883 68.4103L115.377 66.7099C114.936 66.5847 114.679 66.1551 114.789 65.7255Z" fill="#E0F3FF"/>
<path d="M114.789 46.932C114.679 46.5025 114.936 46.0729 115.377 45.9476L121.883 44.2472C122.324 44.1398 122.765 44.3904 122.894 44.82C123.004 45.2495 122.747 45.6791 122.306 45.8044L115.8 47.5048C115.359 47.6122 114.899 47.3616 114.789 46.932Z" fill="#E0F3FF"/>
<path d="M105.144 30.6616C104.832 30.3573 104.832 29.8383 105.144 29.534L109.923 24.8803C110.235 24.576 110.768 24.576 111.081 24.8803C111.393 25.1846 111.393 25.7037 111.081 26.0079L106.302 30.6616C105.99 30.9659 105.457 30.9659 105.144 30.6616Z" fill="#E0F3FF"/>
<path d="M88.4319 21.2648C87.9909 21.1574 87.7336 20.71 87.8438 20.2804L89.5898 13.9442C89.7 13.5147 90.1595 13.2641 90.6006 13.3715C91.0416 13.4789 91.2989 13.9264 91.1887 14.3559L89.4428 20.6921C89.3141 21.1216 88.873 21.3901 88.4319 21.2648Z" fill="#E0F3FF"/>
<path d="M65.5528 29.9815L61.969 31.9862L52.4308 15.9131C51.861 14.9465 52.1918 13.7115 53.1843 13.1566C54.1767 12.6018 55.4448 12.924 56.0145 13.8905L65.5528 29.9815Z" fill="#F4A82D"/>
<path d="M53.8128 39.9693L51.7545 43.4596L35.2509 34.1701C34.2584 33.6152 33.9276 32.3802 34.4973 31.4137C35.0671 30.4472 36.3352 30.125 37.3276 30.6798L53.8128 39.9693Z" fill="#F4A82D"/>
<path d="M48.758 54.324V58.3512H29.6814C28.5419 58.3512 27.623 57.4563 27.623 56.3465C27.623 55.2368 28.5419 54.3419 29.6814 54.3419H48.758V54.324Z" fill="#F4A82D"/>
<path d="M51.7375 69.2161L53.7958 72.7063L37.2923 81.9958C36.2998 82.5506 35.0317 82.2285 34.462 81.2619C33.8923 80.2954 34.2231 79.0604 35.2155 78.5055L51.7375 69.2161Z" fill="#F4A82D"/>
<path d="M61.969 80.6528L65.5528 82.6575L56.0145 98.7306C55.4448 99.6971 54.1767 100.019 53.1843 99.4644C52.1918 98.9096 51.861 97.6746 52.4308 96.708L61.969 80.6528Z" fill="#F4A82D"/>
<path d="M92.0157 82.6758L95.5994 80.6711L105.138 96.7443C105.707 97.7108 105.377 98.9458 104.384 99.5007C103.392 100.056 102.124 99.7333 101.554 98.7668L92.0157 82.6758Z" fill="#F4A82D"/>
<path d="M103.762 72.7063L105.82 69.2161L122.324 78.5055C123.316 79.0604 123.647 80.2954 123.077 81.2619C122.507 82.2285 121.239 82.5506 120.247 81.9958L103.762 72.7063Z" fill="#F4A82D"/>
<path d="M108.816 58.3512V54.324H127.893C129.032 54.324 129.951 55.2189 129.951 56.3287C129.951 57.4384 129.032 58.3333 127.893 58.3333H108.816V58.3512Z" fill="#F4A82D"/>
<path d="M105.842 43.4415L103.783 39.9512L120.287 30.6618C121.279 30.1069 122.547 30.4291 123.117 31.3956C123.687 32.3622 123.356 33.5972 122.364 34.1521L105.842 43.4415Z" fill="#F4A82D"/>
<path d="M95.5994 32.0041L92.0157 29.9995L101.554 13.9264C102.124 12.9599 103.392 12.6377 104.384 13.1925C105.377 13.7474 105.707 14.9824 105.138 15.949L95.5994 32.0041Z" fill="#F4A82D"/>
<path d="M107.483 84.2879C123.337 68.8474 123.337 43.8133 107.483 28.3728C91.6287 12.9322 65.924 12.9322 50.0699 28.3727C34.2158 43.8133 34.2158 68.8474 50.0699 84.2879C65.9241 99.7285 91.6287 99.7285 107.483 84.2879Z" fill="#E0F3FF"/>
<path d="M67.7682 41.1862L43.123 44.6765L60.9683 61.6087L56.7597 85.5036L78.7951 74.2273V19.4392L67.7682 41.1862Z" fill="#F4D34A"/>
<path d="M114.467 44.6765L89.8217 41.1862L78.7948 19.4392V74.2273L100.83 85.5036L96.6217 61.6087L114.467 44.6765Z" fill="#F4A82D"/>
<path d="M78.7935 158.924C71.3503 158.924 65.3223 153.054 65.3223 145.805V85.5215H78.7935V158.924Z" fill="#FF693B"/>
<path d="M100.827 85.5393H56.7559L78.7913 66.1191L100.827 85.5393Z" fill="#FF693B"/>
<path d="M78.7935 85.5037H65.3223V90.8733H78.7935V158.924C86.2366 158.924 92.2647 153.054 92.2647 145.805V85.5216H78.7935V85.5037Z" fill="#B32A00"/>
</svg>
