<svg width="95" height="152" viewBox="0 0 95 152" fill="none" xmlns="http://www.w3.org/2000/svg">
<path d="M84.3486 36.0789L94.1155 45.6562L94.0775 17.168C94.0775 15.8185 92.9564 14.7314 91.5883 14.7314L2.47023 14.9001C1.10211 14.9001 0 16.006 0 17.3554L0.22804 137.606C0.22804 138.955 1.34915 140.042 2.69827 140.042L21.491 140.005L9.42486 128.141L84.3486 36.0789Z" fill="#638BFF"/>
<path d="M94.3078 137.437L94.1178 41.7014L84.351 32.124L9.4082 128.159L21.4743 140.023L91.8186 139.892C93.2057 139.873 94.3078 138.786 94.3078 137.437Z" fill="#3A5BBD"/>
<path d="M72.3399 14.7386L21.7383 14.8389L21.7697 30.1513L72.3713 30.0511L72.3399 14.7386Z" fill="#1A45BF"/>
<path d="M12.2786 30.156C10.6064 30.156 9.23828 31.5055 9.23828 33.1548V36.0786H46.9187V30.156H12.2786Z" fill="#FF693B"/>
<path d="M84.3489 33.1548C84.3489 31.5055 83.1328 30.156 81.4606 30.156H46.8965V36.0786H84.3489V33.1548Z" fill="#B5401D"/>
<path d="M75.7215 34.5434C76.5191 34.5434 77.1656 33.9053 77.1656 33.1182C77.1656 32.3311 76.5191 31.6931 75.7215 31.6931C74.9239 31.6931 74.2773 32.3311 74.2773 33.1182C74.2773 33.9053 74.9239 34.5434 75.7215 34.5434Z" fill="white"/>
<path d="M71.4109 34.5434C72.2085 34.5434 72.855 33.9053 72.855 33.1182C72.855 32.3311 72.2085 31.6931 71.4109 31.6931C70.6134 31.6931 69.9668 32.3311 69.9668 33.1182C69.9668 33.9053 70.6134 34.5434 71.4109 34.5434Z" fill="white"/>
<path d="M81.4798 33.1182C81.4798 33.9058 80.8337 34.5434 80.0357 34.5434C79.2376 34.5434 78.5916 33.9058 78.5916 33.1182C78.5916 32.3306 79.2376 31.6931 80.0357 31.6931C80.8337 31.6931 81.4798 32.3306 81.4798 33.1182Z" fill="white"/>
<path d="M12.4116 120.026V114.328H46.9377V85.8022H12.4116V80.1046H46.9377V74.4069H12.4116V68.7093H46.9377V63.0116H12.4116V43.0886H46.9377V36.1165H9.23828L9.42831 128.179L46.9567 128.104V120.044H12.4116V120.026ZM12.4116 102.914V97.2163V91.5186H35.0616V97.2163V102.914V108.612H12.4116V102.914Z" fill="#FAFEFF"/>
<path d="M84.4455 76.0187L84.4075 56.0582L84.3695 36.0977H46.9551V43.0698H81.5002V62.9928H46.9551V68.6904H81.5002V74.3881H46.9551V80.0858H81.5002V85.7834H46.9551V114.309H81.5002V120.007H46.9551V128.066L84.5595 127.991L84.4455 76.0187ZM81.4812 97.2162V102.914V108.611H58.6601V102.914V97.2162V91.5185H81.4812V97.2162Z" fill="#C9C9C9"/>
<path d="M46.9402 43.0508H12.4141V62.9738H46.9402V43.0508Z" fill="#C9C9C9"/>
<path d="M81.4806 43.0508H46.9355V62.9738H81.4806V43.0508Z" fill="#979797"/>
<path d="M46.9402 68.6904H12.4141V74.3881H46.9402V68.6904Z" fill="#C9C9C9"/>
<path d="M81.4806 68.6904H46.9355V74.3881H81.4806V68.6904Z" fill="#979797"/>
<path d="M81.4806 80.0857H46.9355V85.7833H81.4806V80.0857Z" fill="#979797"/>
<path d="M46.9402 80.0857H12.4141V85.7833H46.9402V80.0857Z" fill="#C9C9C9"/>
<path d="M35.0641 102.914V97.2164V91.5H12.4141V97.2164V102.914V108.612H35.0641V102.914Z" fill="#C9C9C9"/>
<path d="M58.6602 97.2164V102.914V108.612H81.4812V102.914V97.2164V91.5H58.6602V97.2164Z" fill="#979797"/>
<path d="M46.9402 114.328H12.4141V120.025H46.9402V114.328Z" fill="#C9C9C9"/>
<path d="M81.4806 114.328H46.9355V120.025H81.4806V114.328Z" fill="#979797"/>
<path d="M46.4579 140.661L46.4959 151.344L42.6005 144.428L42.5625 128.085L47.1039 128.066L47.123 140.642L46.4579 140.661Z" fill="white"/>
<path d="M47.8426 151.325L47.8046 140.661L47.1206 140.642L47.1016 128.066H51.6429L51.6999 144.39L47.8426 151.325Z" fill="#9F928D"/>
<path d="M47.8261 142.441L47.8451 151.325L47.161 152L46.515 151.344L46.496 142.441C45.6789 142.16 45.0898 141.411 45.0898 140.511C45.0898 139.386 46.0209 138.487 47.142 138.468C48.2821 138.468 49.2132 139.386 49.2132 140.492C49.2132 141.392 48.6242 142.16 47.8261 142.441Z" fill="black"/>
<path d="M46.9524 48.5419L46.8574 6.46548L55.9212 6.44678V10.0266H55.9403L55.9593 13.1378L56.0163 48.5045L46.9524 48.5419Z" fill="#001C6C"/>
<path d="M37.8723 48.542L37.7964 13.1566L37.7773 10.0641L37.7964 6.5031L46.8602 6.46558L46.9551 48.542H37.8723Z" fill="#183A9B"/>
<path d="M46.9598 56.2955L39.4922 56.3105L39.6367 128.093L47.1044 128.078L46.9598 56.2955Z" fill="#183A9B"/>
<path d="M54.2182 56.2955L46.9785 56.3103L47.1253 128.074L54.365 128.06L54.2182 56.2955Z" fill="#001C6C"/>
<path d="M49.3032 6.46605L49.3602 42.0764C49.3602 43.4071 48.2771 44.4941 46.9089 44.4941C45.5598 44.4941 44.4767 43.4258 44.4577 42.0951L44.3817 6.46605L37.7501 6.48481C37.7311 2.92378 40.6574 0.0187606 44.2677 0.0187606L46.8139 0H49.3411C52.9515 0 55.8778 2.8863 55.8968 6.42859L49.3032 6.46605Z" fill="white"/>
<path d="M54.2997 96.0665L47.041 96.085L47.0489 99.1977L54.3076 99.1792L54.2997 96.0665Z" fill="#C9C9C9"/>
<path d="M47.0438 96.0664L39.5762 96.084L39.5835 99.1967L47.0512 99.1791L47.0438 96.0664Z" fill="white"/>
<path d="M56.0362 56.2834L46.9723 56.3022L46.9533 48.5428L56.0172 48.5054L56.0362 56.2834Z" fill="#C9C9C9"/>
<path d="M46.9632 48.5341L37.8613 48.5535L37.8778 56.3128L46.9796 56.2935L46.9632 48.5341Z" fill="white"/>
</svg>
